<svg width="21" height="18" viewBox="0 0 21 18" fill="none" xmlns="http://www.w3.org/2000/svg">
<path d="M10.6496 1.40704C10.4243 1.45242 10.2368 1.58548 10.0208 1.84463C9.60186 2.35951 9.14392 2.65446 8.57702 2.75489C7.55944 2.94608 6.66211 2.44994 5.88857 1.27948C5.3484 0.452143 5.15521 0.307701 4.78395 0.43335C3.83625 0.752624 2.17581 2.84293 1.34795 4.75589C0.855032 5.89708 0.478121 7.33556 0.564432 7.70345C0.620007 7.93295 0.729022 8.05073 1.03603 8.22798L1.43431 8.45793L1.24435 8.78695C1.14462 8.95969 1.04838 9.22219 1.03168 9.36609C0.989822 9.87933 1.64293 10.3003 2.06053 10.0369C2.16255 9.97513 2.34176 9.76054 2.46049 9.5549L2.67894 9.17652L3.25977 9.51186L3.8406 9.8472L3.6079 10.2503C3.25172 10.8672 3.39966 11.2816 4.03633 11.4628C4.31495 11.5359 4.66256 11.2979 4.92376 10.8455L5.08523 10.5658L7.45003 11.9311L9.81483 13.2964L9.59637 13.6748C9.2212 14.3246 9.37029 14.7946 9.98446 14.9188C10.3022 14.9817 10.4185 14.8952 10.7794 14.3468L10.9942 14.0322L11.6142 14.3572L12.2259 14.6775L11.9647 15.1299C11.7415 15.5165 11.7272 15.6179 11.8242 15.8714C11.9829 16.2481 12.1488 16.3439 12.5544 16.2929C12.8307 16.255 12.9031 16.1872 13.1406 15.7759L13.416 15.2988L14.0004 15.5704C14.33 15.7278 14.6038 15.8859 14.6228 15.9297C14.6548 15.9701 14.5467 16.2148 14.3947 16.478C14.0765 17.0291 14.1142 17.347 14.5457 17.5962C14.9523 17.8309 15.2572 17.6669 15.6466 16.9924L15.9743 16.4248L16.5315 16.5711C17.9555 16.9216 19.4011 16.7363 20.0277 16.111C20.6447 15.5021 20.8114 14.6002 20.5145 13.5624C20.2672 12.7067 20.0125 12.3623 18.6569 10.9544C16.9078 9.15498 16.0275 8.05448 12.6144 3.40781C11.8301 2.35179 11.1441 1.45124 11.086 1.4177C11.0196 1.37938 10.8228 1.3754 10.6496 1.40704ZM11.2527 3.85003C11.6235 4.33831 11.633 4.32186 10.8323 4.76985C9.00538 5.78795 6.84017 5.59075 5.15009 4.26401C4.28015 3.58628 3.85004 3.0857 4.00431 2.93348C4.06364 2.86903 4.2369 2.68391 4.37102 2.50909C4.51819 2.33084 4.66771 2.18684 4.7021 2.18476C4.74479 2.18747 5.00906 2.43876 5.28277 2.75033C5.9712 3.53166 7.03568 4.10237 7.91909 4.16274C8.65309 4.21362 9.84628 3.87156 10.3577 3.46488C10.7528 3.14462 10.703 3.11588 11.2527 3.85003ZM13.0345 6.2826L13.4361 6.83253L12.9023 7.18235C12.2438 7.61379 12.1025 7.83932 12.2564 8.22429C12.4897 8.79764 12.8999 8.81517 13.709 8.29523C14.2963 7.91042 14.2584 7.89949 14.8128 8.62541C15.0995 9.01029 15.1019 9.04454 14.7567 9.24006C14.2382 9.54397 14.1122 10.1073 14.4985 10.4729C14.7379 10.7098 15.1091 10.6609 15.5978 10.3509L16.0024 10.0909L16.3851 10.5202C16.5901 10.7592 17.1921 11.4029 17.7182 11.9479C18.7266 12.9798 19.0714 13.475 19.2251 14.0902C19.4758 15.1123 18.9917 15.4909 17.5854 15.3589C16.0937 15.2216 14.197 14.291 7.01963 10.1472L1.94983 7.22011L2.15545 6.5382C2.25769 6.16949 2.53089 5.50467 2.75295 5.06256C3.13413 4.30653 3.16618 4.27019 3.28229 4.414C3.61523 4.81461 4.48042 5.50057 5.16911 5.89819C7.29328 7.12458 9.72902 7.08314 11.8289 5.78393C12.4458 5.40527 12.3829 5.37996 13.0345 6.2826Z" fill="black"/>
</svg>
