<svg width="20" height="17" viewBox="0 0 20 17" fill="none" xmlns="http://www.w3.org/2000/svg">
<path d="M8.80361 2.69915L8.80361 2.70022L7.60361 2.70118L7.60361 2.7001C7.60369 2.01065 7.87761 1.34914 8.36513 0.86162C8.85273 0.374025 9.51405 0.100098 10.2036 0.100098C10.8932 0.100098 11.5545 0.374025 12.0421 0.86162C12.5297 1.34921 12.8036 2.01054 12.8036 2.7001C12.8036 3.03147 12.535 3.3001 12.2036 3.3001C11.8722 3.3001 11.6036 3.03147 11.6036 2.7001C11.6036 2.32879 11.4561 1.9727 11.1936 1.71015C10.931 1.4476 10.5749 1.3001 10.2036 1.3001C9.83231 1.3001 9.47621 1.4476 9.21366 1.71015C8.95133 1.97247 8.80386 2.32819 8.80361 2.69915Z" fill="black"/>
<path fill-rule="evenodd" clip-rule="evenodd" d="M8.80361 2.70022L7.60361 2.70118C7.60617 4.08015 8.0244 5.26086 8.83433 6.22817C8.91094 6.31965 8.9427 6.44056 8.92094 6.55788C8.89919 6.6752 8.8262 6.77668 8.72189 6.83463L1.93724 10.6036C1.53176 10.8288 1.19388 11.1584 0.958679 11.5582C0.72352 11.9579 0.599528 12.4135 0.599609 12.8773V13.7001C0.599609 14.3897 0.873537 15.051 1.36113 15.5386C1.84873 16.0262 2.51005 16.3001 3.19961 16.3001H17.1996C17.8892 16.3001 18.5505 16.0262 19.0381 15.5386C19.5257 15.051 19.7996 14.3897 19.7996 13.7001V12.8771C19.7997 12.4133 19.6757 11.9579 19.4405 11.5582C19.2053 11.1584 18.8674 10.8288 18.4619 10.6036L10.5824 6.22638C10.5657 6.21708 10.5496 6.2066 10.5344 6.195C9.37356 5.31144 8.80655 4.16383 8.80361 2.70022ZM10.3939 7.49437L17.8793 11.6526C18.0976 11.7739 18.2796 11.9514 18.4063 12.1667C18.533 12.382 18.5997 12.6275 18.5996 12.8771V13.7001C18.5996 14.0714 18.4521 14.4275 18.1896 14.69C17.927 14.9526 17.5709 15.1001 17.1996 15.1001H3.19961C2.82831 15.1001 2.47221 14.9526 2.20966 14.69C1.94711 14.4275 1.79961 14.0714 1.79961 13.7001V12.8769C1.79956 12.6272 1.86632 12.3819 1.99295 12.1667C2.11963 11.9513 2.30169 11.7738 2.51998 11.6526L10.0054 7.49437C10.1262 7.42726 10.2731 7.42726 10.3939 7.49437Z" fill="black"/>
<path fill-rule="evenodd" clip-rule="evenodd" d="M8.80432 2.75012C8.80414 2.7335 8.80403 2.71683 8.804 2.70013L8.804 2.69905C8.80401 2.68271 8.80431 2.66641 8.80489 2.65013C8.81687 2.31357 8.94984 1.99252 9.17933 1.74604C9.19067 1.73386 9.20224 1.72186 9.21405 1.71005C9.21405 1.71005 9.21405 1.71005 9.21405 1.71005C9.22586 1.69825 9.23786 1.68666 9.25004 1.67533C9.50866 1.43453 9.8494 1.3 10.204 1.3C10.5753 1.3 10.9314 1.4475 11.194 1.71005C11.4565 1.9726 11.604 2.3287 11.604 2.7C11.604 3.03137 11.8726 3.3 12.204 3.3C12.5354 3.3 12.804 3.03137 12.804 2.7C12.804 2.01044 12.5301 1.34912 12.0425 0.861522C11.5549 0.373927 10.8936 0.1 10.204 0.1C9.51444 0.1 8.85312 0.373928 8.36552 0.861522C7.88954 1.3375 7.61717 1.97933 7.60447 2.65108C7.60416 2.66737 7.604 2.68368 7.604 2.7L7.604 2.70108C7.60403 2.71778 7.60412 2.73444 7.60428 2.75108C7.61675 4.10862 8.0346 5.27248 8.83473 6.22807C8.91133 6.31955 8.94309 6.44046 8.92133 6.55778C8.89958 6.6751 8.82659 6.77659 8.72228 6.83453L1.93763 10.6035C1.53215 10.8287 1.19427 11.1583 0.95907 11.5581C0.72391 11.9578 0.599919 12.4134 0.6 12.8772V13.7C0.6 14.3896 0.873928 15.0509 1.36152 15.5385C1.84912 16.0261 2.51044 16.3 3.2 16.3H17.2C17.8896 16.3 18.5509 16.0261 19.0385 15.5385C19.5261 15.0509 19.8 14.3896 19.8 13.7V12.877C19.8001 12.4132 19.6761 11.9578 19.4409 11.5581C19.2057 11.1583 18.8678 10.8287 18.4623 10.6035L10.5828 6.22628C10.5661 6.21699 10.55 6.2065 10.5348 6.1949L10.5953 6.11533C10.6068 6.12403 10.6188 6.13189 10.6314 6.13887L18.5109 10.516C18.932 10.7499 19.2829 11.0922 19.5271 11.5073C19.7713 11.9225 19.9001 12.3954 19.9 12.877V13.7C19.9 14.4161 19.6155 15.1028 19.1092 15.6092C18.6028 16.1155 17.9161 16.4 17.2 16.4H3.2C2.48392 16.4 1.79716 16.1155 1.29081 15.6092C0.784463 15.1028 0.5 14.4161 0.5 13.7L0.5 12.8772C0.5 12.8772 0.5 12.8772 0.5 12.8772C0.499919 12.3956 0.628674 11.9224 0.87288 11.5073C1.11712 11.0922 1.468 10.7499 1.88907 10.5161C1.88907 10.5161 1.88907 10.5161 1.88907 10.5161L8.67372 6.74711C8.75195 6.70365 8.8067 6.62754 8.82301 6.53955C8.83932 6.45156 8.8155 6.36088 8.75805 6.29227C7.93197 5.30567 7.5066 4.10184 7.504 2.70127L7.504 2.70004C7.50409 1.98409 7.78853 1.29709 8.29481 0.790812C8.80116 0.284464 9.48792 0 10.204 0C10.9201 0 11.6068 0.284463 12.1132 0.790812C12.6195 1.29716 12.904 1.98392 12.904 2.7C12.904 3.0866 12.5906 3.4 12.204 3.4C11.8174 3.4 11.504 3.0866 11.504 2.7C11.504 2.35522 11.367 2.02456 11.1232 1.78076C10.8794 1.53696 10.5488 1.4 10.204 1.4C9.87592 1.4 9.56063 1.52402 9.3208 1.74609L9.53225 1.95754C9.55177 1.97706 9.55177 2.00872 9.53225 2.02825C9.51272 2.04777 9.48106 2.04777 9.46154 2.02825L9.25009 1.8168C9.02822 2.05641 8.90422 2.37136 8.904 2.69912C8.90688 4.13179 9.45949 5.25078 10.5953 6.11533L10.5348 6.1949C9.3872 5.32143 8.81996 4.1899 8.80432 2.75012ZM1.9 12.8768V13.7C1.9 14.0448 2.03696 14.3754 2.28076 14.6192C2.52456 14.863 2.85522 15 3.2 15H17.2C17.5448 15 17.8754 14.863 18.1192 14.6192C18.363 14.3754 18.5 14.0448 18.5 13.7V12.877C18.5 12.6452 18.4381 12.4172 18.3205 12.2173C18.2029 12.0174 18.0339 11.8526 17.8311 11.74L17.8797 11.6525C18.098 11.7738 18.28 11.9513 18.4067 12.1666C18.5333 12.3819 18.6 12.6274 18.6 12.877V13.7C18.6 14.0713 18.4525 14.4274 18.1899 14.6899C17.9274 14.9525 17.5713 15.1 17.2 15.1H3.2C2.8287 15.1 2.4726 14.9525 2.21005 14.6899C1.9475 14.4274 1.8 14.0713 1.8 13.7V12.8768C1.79995 12.6271 1.86671 12.3818 1.99335 12.1666C2.12002 11.9512 2.30208 11.7737 2.52037 11.6525L10.0058 7.49427C10.1266 7.42716 10.2734 7.42716 10.3942 7.49427L17.8797 11.6525L17.8311 11.74L10.3457 7.58169C10.2551 7.53135 10.1449 7.53135 10.0543 7.58169L2.56893 11.7399C2.36622 11.8525 2.19715 12.0173 2.07953 12.2173C1.96195 12.4171 1.89996 12.6449 1.9 12.8768Z" fill="black"/>
</svg>
