<svg width="20" height="16" viewBox="0 0 20 16" fill="none" xmlns="http://www.w3.org/2000/svg">
<path fill-rule="evenodd" clip-rule="evenodd" d="M3.1 1.2C2.3268 1.2 1.7 1.8268 1.7 2.6V4H4.1C4.43137 4 4.7 4.26863 4.7 4.6V10.6C4.7 10.9314 4.43137 11.2 4.1 11.2H1.7V12.6C1.7 13.3732 2.3268 14 3.1 14H9.5V11.1502C7.79737 10.8646 6.5 9.3838 6.5 7.6C6.5 5.8162 7.79737 4.33542 9.5 4.04978V1.2H3.1ZM3.1 0C1.66406 0 0.5 1.16406 0.5 2.6V12.6C0.5 14.0359 1.66406 15.2 3.1 15.2H17.1C18.5359 15.2 19.7 14.0359 19.7 12.6V2.6C19.7 1.16406 18.5359 0 17.1 0H3.1ZM10.7 1.2V4.04978C12.4026 4.33542 13.7 5.8162 13.7 7.6C13.7 9.3838 12.4026 10.8646 10.7 11.1502V14H17.1C17.8732 14 18.5 13.3732 18.5 12.6V11.2H16.1C15.7686 11.2 15.5 10.9314 15.5 10.6V4.6C15.5 4.26863 15.7686 4 16.1 4H18.5V2.6C18.5 1.8268 17.8732 1.2 17.1 1.2H10.7ZM18.5 5.2H16.7V10H18.5V5.2ZM10.7 9.92439C11.7351 9.65796 12.5 8.7183 12.5 7.6C12.5 6.4817 11.7351 5.54204 10.7 5.27561V9.92439ZM9.5 5.27561C8.46486 5.54204 7.7 6.4817 7.7 7.6C7.7 8.7183 8.46486 9.65796 9.5 9.92439V5.27561ZM1.7 10H3.5V5.2H1.7V10Z" fill="black"/>
</svg>
