<svg width="17" height="16" viewBox="0 0 17 16" fill="none" xmlns="http://www.w3.org/2000/svg">
<path d="M10.6729 16C10.9378 16.0018 11.1966 15.9199 11.412 15.7657C11.6275 15.6116 11.7887 15.3933 11.8725 15.142L16.5277 1.69251C16.6071 1.46651 16.6211 1.22266 16.5679 0.989076C16.5148 0.75549 16.3967 0.541679 16.2273 0.372287C16.0579 0.202896 15.8441 0.0848219 15.6105 0.0316755C15.377 -0.0214709 15.1331 -0.0075259 14.9071 0.0719032L1.45785 4.72719C1.20331 4.81332 0.982866 4.9784 0.82857 5.19841C0.674275 5.41843 0.594169 5.68192 0.599897 5.95059C0.602375 6.21912 0.690906 6.47977 0.852482 6.69425C1.01406 6.90874 1.24016 7.06575 1.49757 7.14222L7.58271 9.01704L9.45751 15.1023C9.53314 15.3595 9.69016 15.5853 9.90502 15.7458C10.1199 15.9062 10.381 15.9926 10.6491 15.992L10.6729 16ZM15.3202 1.27147L10.665 14.7289L8.79815 8.64366C8.73661 8.44553 8.6278 8.26534 8.4811 8.11864C8.3344 7.97193 8.15421 7.86312 7.95608 7.80158L1.87094 5.9347L15.3202 1.27147Z" fill="black"/>
</svg>
